<svg width="12" height="12" viewBox="0 0 12 12" fill="none" xmlns="http://www.w3.org/2000/svg">
<path d="M6 2.24194C3.88909 2.24194 2.18182 3.99626 2.18182 6.16534H3.27273C3.27273 4.6184 4.49455 3.36291 6 3.36291C7.50545 3.36291 8.72727 4.6184 8.72727 6.16534H9.81818C9.81818 3.99626 8.11091 2.24194 6 2.24194ZM6.54545 7.44886C7.02545 7.23027 7.36364 6.74264 7.36364 6.16534C7.36364 5.39187 6.75273 4.76413 6 4.76413C5.24727 4.76413 4.63636 5.39187 4.63636 6.16534C4.63636 6.73704 4.97455 7.23027 5.45455 7.44886V9.29846L3.59455 11.2097L4.36364 12L6 10.3185L7.63636 12L8.40545 11.2097L6.54545 9.29846V7.44886ZM6 0C2.68909 0 0 2.76319 0 6.16534H1.09091C1.09091 3.37973 3.28909 1.12097 6 1.12097C8.71091 1.12097 10.9091 3.37973 10.9091 6.16534H12C12 2.76319 9.31091 0 6 0Z" fill="#F70542"/>
</svg>
