<svg width="13" height="13" viewBox="0 0 13 13" fill="none" xmlns="http://www.w3.org/2000/svg">
<g clip-path="url(#clip0_15_37)">
<path d="M9.74998 8.66669L11.9166 6.50002L9.74998 4.33335V5.95835H7.00915C6.82498 4.27919 5.78498 2.86002 4.33331 2.1396C4.31165 1.25127 3.59665 0.541687 2.70831 0.541687C1.80915 0.541687 1.08331 1.26752 1.08331 2.16669C1.08331 3.06585 1.80915 3.79169 2.70831 3.79169C3.2229 3.79169 3.67248 3.54794 3.9704 3.17419C4.99956 3.73752 5.74165 4.75044 5.91498 5.95835H4.23581C4.00831 5.33002 3.41248 4.87502 2.70831 4.87502C1.80915 4.87502 1.08331 5.60085 1.08331 6.50002C1.08331 7.39919 1.80915 8.12502 2.70831 8.12502C3.41248 8.12502 4.00831 7.67002 4.23581 7.04169H5.91498C5.74165 8.2496 4.99956 9.26252 3.97581 9.82585C3.67248 9.4521 3.2229 9.20835 2.70831 9.20835C1.80915 9.20835 1.08331 9.93419 1.08331 10.8334C1.08331 11.7325 1.80915 12.4584 2.70831 12.4584C3.59665 12.4584 4.31165 11.7488 4.3279 10.8604C5.77956 10.14 6.81956 8.72085 7.00373 7.04169H9.74998V8.66669Z" fill="#F70542"/>
</g>
<defs>
<clipPath id="clip0_15_37">
<rect width="13" height="13" fill="white"/>
</clipPath>
</defs>
</svg>
